<!-- Created with Inkscape (http://www.inkscape.org/) -->
<svg id="svg2" xmlns:rdf="http://www.w3.org/1999/02/22-rdf-syntax-ns#" xmlns="http://www.w3.org/2000/svg" viewBox="0 0 240 240" version="1.1" xmlns:cc="http://creativecommons.org/ns#" xmlns:dc="http://purl.org/dc/elements/1.1/">
 <metadata id="metadata7">
  <rdf:RDF>
   <cc:Work rdf:about="">
    <dc:format>image/svg+xml</dc:format>
    <dc:type rdf:resource="http://purl.org/dc/dcmitype/StillImage"/>
    <dc:title/>
   </cc:Work>
  </rdf:RDF>
 </metadata>
 <g id="layer1" transform="translate(0,-812.36218)">
  <path id="bootbkgd" fill="#000" d="m70.938,1046.6c-14.892-2.8142-25.422-11.248-29.472-23.604-1.26-3.8444-1.3945-4.8801-1.3945-10.741,0-6.2957,0.04517-6.5817,1.5317-9.72,3.5017-7.392,8.024-12.055,22.961-23.674,13.127-10.211,16.914-13.885,19.171-18.596,6.7659-14.123,6.6627-24.565-0.52147-52.757-1.4479-5.6817-2.8248-11.809-3.0597-13.617-1.2645-9.7272,3.1272-18.503,12.572-25.121l3.6721-2.5731,0.27056-9.7355c0.38809-13.964,1.9508-20.504,5.6414-23.609,2.2489-1.8923,3.3202-1.6341,6.9797,1.6823,4.5896,4.1593,6.6159,4.9946,11.984,4.9403,8.5437-0.0865,16.133-3.7134,34.115-16.304,6.3717-4.4612,9.4397-5.9843,12.067-5.9905,3.5829-0.009,5.2572,2.3119,6.7574,9.3648,0.50087,2.3548,0.7818,7.542,0.93679,17.298l0.22137,13.934,3.4764,1.2395c9.0959,3.2432,15.335,8.1045,18.22,14.197,1.4862,3.138,1.5636,3.5781,1.5532,8.8282-0.0101,5.1552-0.14777,5.9572-2.0531,11.964-7.1383,22.504-8.7298,38.546-5.3649,54.077,0.52426,2.4197,1.929,7.5237,3.1217,11.342,3.8738,12.402,4.3809,18.805,2.0802,26.263-2.8616,9.2764-10.718,19.887-17.84,24.094-3.9792,2.3507-7.5857,3.696-15.58,5.8117-11.919,3.1543-17.312,5.4718-24.672,10.602-15.347,10.698-20.074,13.296-30.493,16.761-9.4275,3.1354-14.131,3.9415-24.265,4.1577-6.4877,0.1386-9.8962-0.0004-12.618-0.5148z"/>
  <path id="bootsole" fill="#ffd42a" d="m95.808,1037.8c6.4838-1.3671,13.892-3.9335,19.7-6.8246,4.6733-2.3263,7.4248-4.076,17.212-10.946,8.8244-6.1937,15.036-8.9357,27.952-12.338,4.4915-1.1832,9.5178-2.7962,11.17-3.5845,5.4243-2.5887,11.059-8.7488,14.673-16.041,2.2908-4.6222,3.0786-8.5046,2.8278-13.934l-0.0888-1.9219-1.1937,2.5643c-0.68987,1.4819-2.4811,3.8517-4.2438,5.6143-6.0209,6.0209-15.718,11.337-38.998,21.378-15.966,6.8866-25.607,11.523-31.952,15.366-7.1888,4.3538-12.249,6.6031-18.665,8.2969-5.2332,1.3815-6.1506,1.4782-14.008,1.4771-7.5383,0-8.8921-0.1307-13.081-1.2518-8.3371-2.2316-15.567-6.9337-18.134-11.794l-0.93536-1.7709-0.02114,1.4847c-0.03267,2.2868,1.7396,8.6599,3.1068,11.172,3.8488,7.0716,11.252,11.869,21.234,13.76,5.2691,0.9981,17.04,0.6427,23.446-0.7081z"/>
  <path id="bootbody" fill="#ffd42a" d="m90.908,1012.3c5.0973-1.3037,7.0727-2.2056,33.184-15.152,31.688-15.711,40.328-20.987,49.555-30.256,4.9698-4.9927,7.5236-8.6885,8.9375-12.934,0.73731-2.2141,0.75197-2.7791,0.14491-5.5864-3.2633-15.091-1.2009-35.019,5.8677-56.697,1.4509-4.4497,1.8064-6.274,1.826-9.3695,0.0285-4.5151-0.8984-6.711-4.1647-9.8663-2.2067-2.1318-8.172-5.2684-10.303-5.4172l-1.3173-0.092-0.59527,6.967c-0.75844,8.8768-1.1514,10.231-3.417,11.778-4.1809,2.8545-15.124,5.2888-30.133,6.703-13.951,1.3146-13.115,1.162-14.888,2.718-4.9923,4.3833-7.9249,14.589-11.988,41.719-1.2049,8.0459-2.3889,14.827-2.6312,15.069-0.78777,0.78776-1.3882-0.0939-2.6403-3.8773-3.7226-11.248-9.6987-44.649-11.109-62.087-0.41562-5.1406-0.82062-9.4115-0.9-9.4908-0.07933-0.0793-1.2629,0.95687-2.6302,2.3027-3.5899,3.5337-4.9831,6.5295-5.2373,11.262-0.1847,3.4371,0.05007,4.8354,2.2184,13.213,5.6652,21.89,7.3693,34.993,5.811,44.685-0.65039,4.0452-3.3103,11.99-5.5923,16.704-2.4766,5.1158-8.3474,10.92-20.565,20.33-5.2853,4.071-11.194,8.9173-13.13,10.77l-3.5203,3.3678,2.7312,3.0157c5.8114,6.4167,12.15,9.7876,21.367,11.363,2.2988,0.3929,9.606-0.2425,13.118-1.1407z"/>
  <path id="lefteye" fill="#FFF" d="m115.24,873.47c3.7936-3.7936,0.93682-14.374-3.1509-11.67-1.1017,0.72892-2.1091,3.5104-2.1091,5.8235,0,5.2971,2.7513,8.3551,5.26,5.8463z"/>
  <path id="righteye" fill="#FFF" d="m151.81,872.84c3.3079-2.2293,5.2582-8.5506,4.2883-13.899-1.4646-8.0767-6.4821-11.419-11.006-7.3318-2.6195,2.3666-3.6331,5.2402-3.6331,10.3,0,3.577,0.17901,4.4421,1.4415,6.967,1.5678,3.1356,3.841,5.0451,6.0061,5.0451,0.71464,0,2.0212-0.48649,2.9035-1.0811z"/>
 </g>
</svg>
