<!-- Created with Inkscape (http://www.inkscape.org/) -->
<svg id="svg2" xmlns:rdf="http://www.w3.org/1999/02/22-rdf-syntax-ns#" xmlns="http://www.w3.org/2000/svg" viewBox="0 0 480 480" version="1.1" xmlns:cc="http://creativecommons.org/ns#" xmlns:dc="http://purl.org/dc/elements/1.1/">
 <defs id="defs4">
  <filter id="filter3283" height="1" width="1" y="0" x="0" color-interpolation-filters="sRGB">
   <feColorMatrix id="feColorMatrix3285" type="luminanceToAlpha" result="result2"/>
   <feComposite id="feComposite3287" in2="SourceGraphic" k3="2" result="result4" in="result2" operator="arithmetic"/>
   <feBlend id="feBlend3289" result="result3" mode="multiply" in2="result2" in="result4"/>
   <feComposite id="feComposite3291" operator="in" in2="SourceGraphic" in="result3"/>
  </filter>
 </defs>
 <metadata id="metadata7">
  <rdf:RDF>
   <cc:Work rdf:about="">
    <dc:format>image/svg+xml</dc:format>
    <dc:type rdf:resource="http://purl.org/dc/dcmitype/StillImage"/>
    <dc:title/>
   </cc:Work>
  </rdf:RDF>
 </metadata>
 <g id="layer1" transform="translate(0,-572.36218)">
  <path id="path2996" fill="#000" d="M130.21,1015.4c-19.3-104.76-22.1-227.79-5.99-263.14,8.2021-18.002,22.286-19.413,36.541-3.6609,12.47,13.779,45.622,15.272,74.177,3.3413,10.676-4.4609,36.447-19.775,57.267-34.031,62.782-42.988,68.304-42.001,75.371,13.462,3.7306,29.281-5.7371,241.26-13.237,296.37l-3.3117,24.336h-107.03-107.03l-6.7653-36.717zm47.731-161.31c0-10.96-2.9258-16.701-8.5106-16.701-9.4161,0-14.352,15.882-9.1488,29.441,5.4397,14.175,17.659,5.3599,17.659-12.74zm125.65,7.7922c4.9026-6.9994,8.9138-19.31,8.9138-27.356,0-16.303-14.363-40.082-24.209-40.082-24.304,0-36.791,48.761-17.848,69.693,12.557,13.875,22.311,13.212,33.144-2.2547z"/>
  <g id="g3123" filter="url(#filter3283)" transform="matrix(0.47923885,0,0,0.47923885,825.14535,583.4563)">
   <path id="path3143" fill="#a0a98e" d="m-1305.5,373.99c-33.642-2.9787-61.828-9.2931-115.42-25.859-23.955-7.404-55.501-16.247-70.102-19.652-47.173-10.999-68.264-24.566-68.224-43.884,0.043-20.118,19.039-37.304,66.186-59.878,37.523-17.966,39.664-22.608,18.566-40.244-9.1203-7.6236-18.411-20.952-30.819-44.212-19.639-36.815-19.602-34.177-0.7868-57.113,15.084-18.388,57.905-64.578,62.577-67.5,4.0585-2.5386,56.15-13.595,115.07-24.425,39.38-7.2378,108.42-6.7863,146.05,0.95516,76.399,15.72,129.51,34.605,160.82,57.189,7.7729,5.606,17.144,12.364,20.825,15.017,3.7579,2.7091,17.01,5.8101,30.223,7.0722,21.293,2.0339,24.363,3.1794,32.286,12.047,8.429,9.4337,8.78,11.082,9.3999,44.144,0.95884,51.135-0.26383,66.014-7.1615,87.154-6.8196,20.9-11.143,43.217-14.347,74.062-2.0207,19.452-2.2942,19.946-12.966,23.43-5.9961,1.9571-29.383,5.1042-51.971,6.9936-37.793,3.1613-43.02,4.3718-65.526,15.176-46.244,22.199-99.658,36.412-145.21,38.641-17.655,0.86355-36.915,1.9336-42.8,2.3779-5.885,0.44429-22.381-0.22654-36.659-1.4906z"/>
   <path id="path3141" fill="#88946e" d="m-1319.3,369.34c-21.429-2.6742-57.826-11.743-97.829-24.374-23.54-7.4333-56.416-16.983-73.057-21.222-35.011-8.9174-50.657-16.15-59.64-27.57-7.9879-10.155-8.0173-14.683-0.1777-27.367,7.9743-12.903,32.268-28.979,65.562-43.384,30.32-13.119,34.507-19.461,23.064-34.937-4.9427-6.6853-5.8981-10.146-3.4711-12.573s0.8299-4.4079-5.8018-7.1964c-7.38-3.1031-9.1506-5.6896-9.1506-13.368,0-11.642-3.9082-19.421-17.256-34.348-5.6423-6.3102-10.259-12.704-10.259-14.208s4.3292-11.474,9.6204-22.155c8.9236-18.014,45.484-60.24,57.993-66.979,2.718-1.4643,15.787-4.7549,29.043-7.3124s30.292-6.0108,37.858-7.6739c43.415-9.5426,70.403-12.565,116.39-13.035,48.739-0.49773,51.53-0.17832,94.55,10.819,46.151,11.798,85.6,25.664,85.6,30.089,0,1.4141-1.8951,2.5711-4.2114,2.5711-2.3162,0-6.0453,2.2098-8.2869,4.9107-3.208,3.8655-7.0292,4.4426-17.953,2.7115-20.637-3.2705-33.184-2.9006-54.306,1.601l-19.029,4.0555,11.72,5.2474c14.247,6.3787,30.568,11.159,92.066,26.963,47.653,12.247,93.897,27.749,105.73,35.442,3.5031,2.2782,8.7401,8.7318,11.638,14.341l5.2686,10.199-1.5575-16.814c-0.85665-9.2479-2.4893-23.349-3.6283-31.336-2.4051-16.866,2.2499-19.397,13.55-7.3681,10.131,10.783,12.688,24.186,12.688,66.484,0,31.696-1.159,41.719-6.5419,56.577-6.776,18.703-10.634,39.883-13.745,75.458-1.3072,14.946-3.24,21.48-6.9404,23.46-5.5967,2.9953-39.771,7.7774-78.244,10.949-13.999,1.154-26.522,3.8534-29.286,6.3129-11.981,10.66-85.914,35.32-127.78,42.621-23.422,4.0844-99.019,5.5513-124.19,2.4099zm-116.45-190.09c2.1842-3.5342-10.99-28.893-15.772-30.359-6.4328-1.9725-4.9985,25.863,1.5285,29.664,6.6208,3.8562,12.124,4.1246,14.244,0.69468zm383.95-32.55c-2.0932-2.5221-5.357-4.542-7.2529-4.4885s-0.7767,2.117,2.4872,4.5857c7.6235,5.7661,9.5984,5.7258,4.7657-0.0972zm-36.686-13.757c3.2451-2.0972-0.7768-2.987-13.757-3.044-10.088-0.0442-23.846-0.94789-30.571-2.0081-6.7257-1.0602-11.25-0.86894-10.054,0.42503s10.138,3.3719,19.871,4.6176c25.731,3.2932,29.428,3.2942,34.511,0.009zm89.282-35.472c-10.173-4.4448-10.816-10.385-1.1243-10.385,7.0941,0,19.377,8.8902,17.185,12.438-2.2028,3.5643-3.618,3.3834-16.06-2.0529zm-77.817-26.29c-6.3054-1.6747-11.464-4.2839-11.464-5.7983,0-3.9444,17.659-3.3966,29.59,0.91784,20.678,7.4774,6.2645,11.358-18.126,4.8805z"/>
   <path id="path3139" fill="#798761" d="m-1320.2,368.13c-23.979-3.1143-58.621-12.023-106.11-27.287-20.177-6.4856-48.379-14.843-62.671-18.573-62.77-16.38-78.308-35.238-50.923-61.802,11.78-11.427,57.946-37.09,77.957-43.336,7.6008-2.3724,7.7343-5.2458,1.8158-39.093-1.3225-7.5631-0.8506-11.464,1.3869-11.464,1.8654,0,3.3916,2.0931,3.3916,4.6513,0,5.8983,14.348,12.795,18.332,8.8108,7.0959-7.0959-20.898-47.091-32.961-47.091-5.2999,0-16.088-14.407-14.292-19.087,1.0029-2.6135,0.3314-5.6738-1.492-6.8008-7.1368-4.4108,0.5135-6.8093,18.474-5.7921,10.35,0.58617,38.605,4.58,62.79,8.8751,25.491,4.5272,51.992,7.4256,63.053,6.8961l19.081-0.91323-18.343-5.7206c-10.089-3.1463-18.908-6.2316-19.598-6.8561-0.6903-0.62454,0.9769-3.6018,3.7048-6.6162,2.7279-3.0143,7.0944-10.589,9.7032-16.833,4.607-11.026,5.1985-11.352,20.572-11.352,14.414,0,15.299,0.38764,9.8995,4.3358-9.3513,6.8378-2.9738,9.0636,14.609,5.0986,8.8754-2.0014,21.64-4.6893,28.366-5.9732,6.7257-1.2839,15.668-4.2265,19.872-6.5391l7.6428-4.2048-9.4383-1.9851c-5.191-1.0918-11.382-3.2364-13.757-4.7658-2.3754-1.5294-19.93-2.8133-39.011-2.8532-30.945-0.06463-35.18-0.72501-39.204-6.1143-4.3209-5.7862-5.5191-4.9784-28.322,19.095-13.096,13.825-27.628,26.588-32.294,28.362-11.303,4.2975-84.074-5.312-84.074-11.102,0-4.9462,25.781-35.915,42.23-50.727,6.9547-6.2627,16.463-12.187,21.129-13.166,4.6663-0.9785,13.914-2.9994,20.55-4.4908,11.5-2.5845,25.026-0.83366,49.295,6.3809,5.1637,1.535,13.203,2.791,17.865,2.791,5.9052,0,8.9613,1.8546,10.075,6.1143,0.8794,3.3629,3.846,6.1606,6.5923,6.2172,20.532,0.4233,70.77,6.5856,83.836,10.283,8.7609,2.4795,26.935,6.5284,40.386,8.9975,42.821,7.8603,179.53,43.916,202.82,53.492,29.274,12.037,35.077,17.318,32.737,29.793-1.3055,6.9587-0.15989,11.634,4.1437,16.91,5.0003,6.1305,6.2488,6.5211,7.8354,2.4518,2.0596-5.2826,0.38856-38.593-3.0929-61.652-2.4986-16.549,0.17976-18.217,10.911-6.7938,8.1814,8.7087,11.485,27.404,11.87,67.172,0.18098,18.705-1.6068,29.85-7.6012,47.386-7.9673,23.307-13.489,53.409-14.86,81.014-1.1099,22.338-1.0078,22.088-9.9215,24.325-4.5129,1.1326-28.825,4.0348-54.027,6.4492-29.703,2.8456-47.519,5.9078-50.645,8.7049-14.26,12.76-86.052,35.769-134.75,43.189-31.038,4.7286-84.072,5.2736-115.53,1.1873zm375.45-198.6c-3.0067-6.901-3.1477-6.6665-1.6732,2.7819,0.88557,5.6748,1.8303,13.241,2.0994,16.814,0.28921,3.8392,0.97355,2.7013,1.6732-2.7819,0.65117-5.1031-0.29349-12.67-2.0994-16.814zm-70.629-18.28c3.0366-1.6128,1.427-2.9407-5.3754-4.4348-5.3405-1.173-11.123-4.7723-12.849-7.9985-5.1386-9.6015-15.442-14.505-38.032-18.1-11.743-1.8686-23.544-5.3833-26.226-7.8104-6.2204-5.6294-8.9805-5.5942-8.9805,0.11457,0,6.8439-13.289,8.7801-31.282,4.5578-19.566-4.5914-25.401-7.4357-38.375-18.705-8.0695-7.0096-12.95-8.7231-24.848-8.7231-8.1433,0-19.745,2.0636-25.781,4.5857-6.0363,2.5221-14.274,4.5857-18.306,4.5857s-21.59,4.7283-39.018,10.507c-27.96,9.2714-30.795,10.839-24.103,13.331,4.1714,1.5533,27.532,3.5943,51.913,4.5356,24.381,0.94128,53.301,3.8415,64.266,6.4448,11.632,2.7615,38.377,5.1411,64.2,5.712,40.371,0.89251,45.741,1.6848,61.077,9.0114,13.686,6.5383,19.658,7.7216,32.1,6.36,8.4071-0.92007,17.236-2.7088,19.62-3.975zm-232-61.102c0-1.6814-1.3757-3.0571-3.0571-3.0571s-3.0571,1.3757-3.0571,3.0571,1.3757,3.0571,3.0571,3.0571,3.0571-1.3757,3.0571-3.0571zm-166.61-18.343c7.5169-1.9127,5.9676-2.399-8.5876-2.6954-11.144-0.22698-17.055,0.77701-15.87,2.6954,2.1312,3.4483,10.906,3.4483,24.457,0zm-48.214,86.81c-1.2261-1.226-2.2292-4.3386-2.2292-6.9168,0-3.4411,0.9044-3.7832,3.4011-1.2865,1.8706,1.8706,2.8737,4.9831,2.2291,6.9168-0.6445,1.9336-2.175,2.5126-3.401,1.2865zm224-135.99c-5.885-1.4852-16.203-1.9891-22.929-1.1198l-12.229,1.5805,8.4072-4.7792c4.6239-2.6286,8.4071-5.8061,8.4071-7.0611,0-2.7124-32.792-12.809-41.603-12.809-3.3786,0-8.8117,1.9515-12.074,4.3366-5.6636,4.1414-5.5179,4.4228,3.2372,6.2533,21.631,4.5224,32.096,8.2146,32.096,11.324,0,2.1166-4.1668,2.6867-11.464,1.5685-6.3054-0.96615-20.093-2.6989-30.64-3.8505-10.546-1.1516-19.914-3.2884-20.816-4.7484-0.9023-1.46-6.9811-2.6545-13.508-2.6545-21.309,0-15.71-5.1934,11.405-10.578,35.819-7.1136,113.81-9.8712,135.06-4.7751,17.01,4.0807,39.955,15.545,46.22,23.093,3.1939,3.8484,1.4634,4.4884-12.136,4.4884-8.7236,0-18.554-1.4415-21.846-3.2033-4.5449-2.4324-7.1244-2.0645-10.717,1.5286-5.139,5.139-18.016,5.6582-34.867,1.4057zm26.686-10.749c-1.0159-1.0159-3.6527-1.1245-5.8595-0.24136-2.4388,0.97592-1.7144,1.7003,1.847,1.847,3.2227,0.13274,5.0284-0.58981,4.0125-1.6057z"/>
   <path id="path3137" fill="#af4944" d="m-1311.2,368.13c-33.072-3.7274-57.673-10.137-138.85-36.175-105.67-33.892-113.9-40.143-90.421-68.631,9.4449-11.458,70.728-44.772,82.361-44.772,4.8887,0,5.865-2.2277,5.865-13.383,0-8.1662-1.7875-14.866-4.5857-17.189-5.1015-4.2338-6.3276-21.4-1.5286-21.4,1.6814,0,3.0571,2.0931,3.0571,4.6513,0,5.8983,14.348,12.795,18.332,8.8108,4.1273-4.1273-10.115-33.431-24.64-50.696-6.6191-7.8681-12.035-14.94-12.035-15.716,0-0.77546,4.4711-2.0386,9.9357-2.8071,5.4646-0.76844,12.343-2.4419,15.286-3.7187,4.1833-1.8152,5.35-0.84549,5.35,4.4469,0,5.3574,1.1154,6.2489,5.35,4.2764,5.8052-2.704,24.356-2.9123,38.979-0.43761,5.0443,0.85367,24.7,3.0413,43.679,4.8614s36.175,4.3396,38.212,5.5988c2.0374,1.2592,26.405,3.2516,54.15,4.4275,32.585,1.3811,60.651,4.3976,79.272,8.52,32.351,7.162,48.407,7.9734,59.326,2.998,8.1991-3.7358,44.621,2.9209,61.352,11.213,9.8571,4.8854,58.42,6.225,61.223,1.6888,2.1047-3.4054-3.6061-8.0766-13.543-11.078-4.2036-1.2696-12.695-6.8405-18.869-12.38-7.8355-7.0295-15.617-10.73-25.765-12.252-9.4644-1.4193-16.927-4.7573-21.382-9.5644-7.6412-8.245-34.921-19.273-47.676-19.273-4.5685,0-11.77-1.578-16.003-3.5066-5.8173-2.6506-8.747-2.6345-12.001,0.06573-5.0768,4.2134-14.546,1.2521-35.62-11.14l-13.757-8.0894,13.642-2.3736c13.862-2.4118,45.972,4.7937,45.972,10.316,0,1.3744,6.1688,2.4988,13.708,2.4988,17.366,0,81.549,13.423,111.79,23.379,26.417,8.6972,47.229,19.543,47.229,24.613,0,1.9082,1.0318,4.5012,2.2929,5.7623s2.3366,5.8468,2.3901,10.19c0.0535,4.3437,2.1171,10.568,4.5857,13.832,2.4687,3.2639,4.4885,9.8588,4.4885,14.655,0,6.6099,1.2951,8.5037,5.35,7.8228,8.649-1.4522,8.3687,16.858-1.6449,107.45-2.6078,23.593,0.1978,22.339-64.119,28.648-30.427,2.9846-45.205,5.7226-48.914,9.063-11.108,10.003-76.975,32.091-120.08,40.268-31.486,5.9727-89.694,8.1352-121.74,4.5229zm368.3-202.12c-2.9436-10.588-6.541-29.675-7.9942-42.417s-3.602-26.991-4.775-31.664c-1.7775-7.0824-1.2332-8.3201,3.2681-7.4309,10.411,2.0566,16.114,19.393,18.397,55.925,2.6892,43.039-1.0519,53.799-8.8956,25.587zm-492.6-81.976c1.0391-1.6814,6.6232-3.0571,12.409-3.0571,5.7857,0,10.52,1.3757,10.52,3.0571s-5.584,3.0571-12.409,3.0571c-7.4941,0-11.661-1.2108-10.52-3.0571zm-51.712-2.6373c-2.9168-4.7194,8.7366-12.522,15.903-10.647,6.7214,1.7577,8.8627,5.6333,4.473,8.0959-5.8925,3.3057-18.903,4.9349-20.376,2.5515zm19.612-25.631c0-6.2247,28.408-32.285,37.186-34.113,16.775-3.4933,28.9-3.9569,33.978-1.2994,6.7435,3.5289,4.1998,8.6007-3.3265,6.6325-3.8141-0.99741-6.6876,1.1004-9.2696,6.7672-3.2766,7.1914-3.128,7.9771,1.195,6.3182,2.7153-1.042,7.4703-1.8945,10.567-1.8945,3.0964,0,9.835-3.5386,14.975-7.8635,10.318-8.6816,22.562-9.038,24.15-0.70302,0.6163,3.2348-3.7536,8.6261-11.597,14.308-12.577,9.1105-12.598,9.1139-28.043,4.5271-14.994-4.4527-15.679-4.3817-22.863,2.3677-9.3202,8.7559-46.952,12.725-46.952,4.9525zm282.81-42.011c-1.071-1.733,0.1562-2.2455,2.8767-1.2015,5.2963,2.0324,6.2653,4.2236,1.8678,4.2236-1.5822,0-3.7172-1.36-4.7445-3.0221zm-13.779-6.1493c-2.5221-1.6299-3.21-2.9635-1.5285-2.9635,1.6814,0,5.1207,1.3336,7.6428,2.9635,2.5222,1.6299,3.21,2.9635,1.5286,2.9635s-5.1207-1.3336-7.6429-2.9635zm-30.571-9.1714c-6.8651-2.1986-6.4946-2.4787,3.641-2.7524,6.2061-0.16759,12.134,1.071,13.173,2.7524,2.1855,3.5363-5.7722,3.5363-16.814,0z"/>
   <path id="path3135" fill="#69734f" d="m-1311.2,368.13c-33.072-3.7274-57.673-10.137-138.85-36.175-105.67-33.892-113.9-40.143-90.421-68.631,9.5701-11.61,70.792-44.772,82.656-44.772,5.4828,0,6.0435-1.6505,5.1006-15.014-1.2157-17.231,1.8928-17.293,13.395-0.26567,6.3274,9.3666,8.9143,10.748,20.842,11.133,7.4899,0.24151,17.986,1.8353,23.324,3.542,12.764,4.0809,14.08,2.0853,7.4146-11.238-3.5351-7.0658-5.0421-15.133-4.1557-22.246,1.3904-11.158,1.3876-11.161-14.958-16.002-17.768-5.262-38.866-20.566-55.943-40.58-5.9667-6.993-10.849-13.377-10.849-14.187,0-0.80983,4.4711-2.1011,9.9357-2.8696,5.4646-0.76844,12.343-2.4419,15.286-3.7187,4.1833-1.8152,5.35-0.84549,5.35,4.4469,0,5.3574,1.1154,6.2489,5.35,4.2764,5.8052-2.704,24.356-2.9123,38.979-0.43761,5.0443,0.85367,24.7,3.0413,43.679,4.8614s36.175,4.3396,38.212,5.5988c2.0374,1.2592,26.405,3.2516,54.15,4.4275,32.585,1.3811,60.651,4.3976,79.272,8.52,32.351,7.162,48.407,7.9734,59.326,2.998,8.1991-3.7358,44.621,2.9209,61.352,11.213,9.8571,4.8854,58.42,6.225,61.223,1.6888,2.1047-3.4054-3.6061-8.0766-13.543-11.078-4.2036-1.2696-12.695-6.8405-18.869-12.38-7.8355-7.0295-15.617-10.73-25.765-12.252-9.4644-1.4193-16.927-4.7573-21.382-9.5644-7.6412-8.245-34.921-19.273-47.676-19.273-4.5685,0-11.77-1.578-16.003-3.5066-5.8173-2.6506-8.747-2.6345-12.001,0.06573-5.0768,4.2134-14.546,1.2521-35.62-11.14l-13.757-8.0894,13.642-2.3736c13.862-2.4118,45.972,4.7937,45.972,10.316,0,1.3744,6.1688,2.4988,13.708,2.4988,17.366,0,81.549,13.423,111.79,23.379,26.417,8.6972,47.229,19.543,47.229,24.613,0,1.9082,1.0318,4.5012,2.2929,5.7623s2.3366,5.8468,2.3901,10.19c0.0535,4.3437,2.1171,10.568,4.5857,13.832,2.4687,3.2639,4.4885,9.8588,4.4885,14.655,0,6.6099,1.2951,8.5037,5.35,7.8228,8.649-1.4522,8.3687,16.858-1.6449,107.45-2.6078,23.593,0.1978,22.339-64.119,28.648-30.427,2.9846-45.205,5.7226-48.914,9.063-11.108,10.003-76.975,32.091-120.08,40.268-31.486,5.9727-89.694,8.1352-121.74,4.5229zm368.3-202.12c-2.9436-10.588-6.541-29.675-7.9942-42.417s-3.602-26.991-4.775-31.664c-1.7775-7.0824-1.2332-8.3201,3.2681-7.4309,10.411,2.0566,16.114,19.393,18.397,55.925,2.6892,43.039-1.0519,53.799-8.8956,25.587zm-492.6-81.976c1.0391-1.6814,6.6232-3.0571,12.409-3.0571,5.7857,0,10.52,1.3757,10.52,3.0571s-5.584,3.0571-12.409,3.0571c-7.4941,0-11.661-1.2108-10.52-3.0571zm-51.712-2.6373c-2.9168-4.7194,8.7366-12.522,15.903-10.647,6.7214,1.7577,8.8627,5.6333,4.473,8.0959-5.8925,3.3057-18.903,4.9349-20.376,2.5515zm19.612-25.631c0-6.2247,28.408-32.285,37.186-34.113,16.775-3.4933,28.9-3.9569,33.978-1.2994,6.7435,3.5289,4.1998,8.6007-3.3265,6.6325-3.8141-0.99741-6.6876,1.1004-9.2696,6.7672-3.2766,7.1914-3.128,7.9771,1.195,6.3182,2.7153-1.042,7.4703-1.8945,10.567-1.8945,3.0964,0,9.835-3.5386,14.975-7.8635,10.318-8.6816,22.562-9.038,24.15-0.70302,0.6163,3.2348-3.7536,8.6261-11.597,14.308-12.577,9.1105-12.598,9.1139-28.043,4.5271-14.994-4.4527-15.679-4.3817-22.863,2.3677-9.3202,8.7559-46.952,12.725-46.952,4.9525zm282.81-42.011c-1.071-1.733,0.1562-2.2455,2.8767-1.2015,5.2963,2.0324,6.2653,4.2236,1.8678,4.2236-1.5822,0-3.7172-1.36-4.7445-3.0221zm-13.779-6.1493c-2.5221-1.6299-3.21-2.9635-1.5285-2.9635,1.6814,0,5.1207,1.3336,7.6428,2.9635,2.5222,1.6299,3.21,2.9635,1.5286,2.9635s-5.1207-1.3336-7.6429-2.9635zm-30.571-9.1714c-6.8651-2.1986-6.4946-2.4787,3.641-2.7524,6.2061-0.16759,12.134,1.071,13.173,2.7524,2.1855,3.5363-5.7722,3.5363-16.814,0z"/>
   <path id="path3133" fill="#5b6543" d="m-1334.6,363.45c-25.441-4.5241-106.67-29.158-121.8-36.937-6.7295-3.4606-8.2996-5.9926-6.979-11.254,1.3221-5.2676-0.1579-7.6433-6.6026-10.599-19.262-8.8347-22.342-11.276-20.956-16.61,0.9537-3.6715-3.4003-9.4483-13.61-18.057-15.266-12.872-18.289-17.816-10.896-17.816,5.7026,0,22.827-8.8098,25.654-13.198,1.9707-3.0586,22.949-14.316,26.678-14.316,0.6667,0,1.6518,3.0813,2.1891,6.8473,0.5373,3.7661,3.2066,7.272,5.9317,7.7909,6.2449,1.1893,9.2318-9.3458,6.8583-24.19-2.3169-14.49,3.2595-17.944,11.682-7.2362,5.298,6.7352,8.3463,7.9587,17.242,6.9201,5.9436-0.69388,15.714,0.42552,21.712,2.4876,14.624,5.0274,16.512,3.0317,9.8071-10.365-3.6323-7.2573-5.1573-15.289-4.2639-22.458l1.3906-11.16-17.071-4.9628c-18.551-5.3929-39.69-23.004-48.832-40.683-4.8037-9.2893-4.7614-9.9077,0.8862-12.93,8.4197-4.5061,10.312-3.9701,8.6337,2.446-1.283,4.9064,0.391,5.5817,13.179,5.3167,8.0569-0.16701,15.666-1.3204,16.908-2.5632,4.2088-4.2088,6.7901-2.2892,5.1834,3.8548-1.9219,7.3496,7.4656,8.7513,10.237,1.5286,2.8952-7.5449,9.9573-5.5524,7.9209,2.2348-1.7114,6.5444-1.4832,6.6295,5.6362,2.1025,9.8369-6.2549,40.433-6.7583,69.754-1.1476,12.796,2.4486,38.572,4.4523,57.28,4.4526,42.387,0.00065,120.85,14.855,131.55,24.904l6.5988,6.1992-0.4796-10.201c-0.4119-8.7604,0.5998-10.327,7.1632-11.091,4.2036-0.48929,19.336,2.7411,33.629,7.1786,37.474,11.635,73.572,14.362,93.243,7.0439,18.247-6.7888,15.398-6.6696,21.182-0.88602,2.6422,2.6422,4.8041,9.4672,4.8041,15.167,0,6.4571,2.3255,12.529,6.1705,16.111,5.5971,5.2145,5.9101,7.5872,3.3684,25.535-1.5411,10.882-2.0766,26.222-1.19,34.089,1.0356,9.1882,0.23784,15.958-2.231,18.933-2.6147,3.1506-3.2023,9.4611-1.8384,19.743,1.6769,12.641,1.116,15.586-3.4303,18.008-6.4442,3.4333-41.279,8.652-76.614,11.478-17.06,1.3644-27.55,3.778-32.152,7.3972-15.885,12.495-87.657,35.939-130.54,42.641-28.141,4.3977-104.04,3.401-132.99-1.7463zm298.07-146.53c7.5664-3.8186,17.796-8.7967,22.732-11.062,12.5-5.7381,40.483-32.021,37.413-35.14-1.39-1.412-23.926,4.8597-50.081,13.937-46.606,16.175-47.856,16.427-62.699,12.623-19.751-5.062-25.523-0.6774-13.625,10.349,4.4962,4.167,8.1749,8.8074,8.1749,10.312,0,10.771,35.975,10.139,58.086-1.0191zm-113.11-19.768c0-1.6814-0.6066-3.0572-1.3481-3.0572s-2.1984,1.3757-3.2376,3.0572c-1.0392,1.6814-0.4325,3.0571,1.3481,3.0571,1.7807,0,3.2376-1.3757,3.2376-3.0571zm206.4-38.478c-2.8975-9.9437-5.645-24.27-6.1056-31.837-0.46062-7.5664-1.8682-19.604-3.1279-26.75-2.6374-14.961,1.1808-17.146,9.0291-5.168,3.4073,5.2003,6.0034,18.774,7.7399,40.469,3.1582,39.458,0.0122,49.183-7.5354,23.285zm-59.807-14.512c-7.6492-3.6433-20.031-10.887-27.514-16.097-7.4837-5.2101-17.734-10.467-22.778-11.682-10.367-2.4974-25.986-16.012-25.986-22.485,0-12.311,91.858,16.895,98.104,31.192,1.522,3.4838,4.4902,8.8223,6.5959,11.863,3.2138,4.641,2.8756,6.2369-2.1056,9.9357-7.4813,5.5554-9.3304,5.3639-26.316-2.7264zm-459.51-89.978c-1.9247-3.1143,27.964-28.231,33.595-28.231,12.48,0,3.588,23.24-9.9562,26.022-3.9973,0.82096-10.623,2.1856-14.723,3.0325-4.1006,0.84689-8.1125,0.47672-8.9156-0.82258z"/>
   <path id="path3131" fill="#4c5435" d="m-1314.7,365.18c-21.126-2.5101-69.785-14.177-74.9-17.959-1.6814-1.2432-11.672-4.7882-22.201-7.8778-21.889-6.4229-27.58-11.062-20.637-16.825,6.3826-5.297,5.8325-8.1919-3.0194-15.889-4.2036-3.655-7.6429-8.3925-7.6429-10.528,0-2.1354-2.1071-5.0616-4.6824-6.5029-2.5753-1.4412-5.5172-7.7646-6.5374-14.052-1.4977-9.2287-0.5954-12.605,4.6823-17.522,4.5211-4.212,6.5375-9.77,6.5375-18.02,0-6.561,1.3905-12.788,3.0899-13.839,1.9559-1.2088,1.3949-4.3297-1.5285-8.5035-2.5402-3.6266-4.6185-7.6634-4.6185-8.9708,0-4.1882,8.2861-2.5415,12.448,2.4739,2.7212,3.2788,7.4792,4.4477,14.682,3.6067,5.8611-0.68425,15.564,0.44304,21.562,2.5051,5.998,2.062,11.931,3.1156,13.184,2.3412,1.2529-0.77437-0.4555-6.7663-3.7966-13.315-4.8534-9.5133-5.4384-13.581-2.9097-20.232,4.5527-11.974,1.9864-15.552-12.922-18.012-24.143-3.9847-37.244-15.984-30.537-27.969,2.488-4.4458,4.4114-3.077,13.179,9.379,9.2988,13.21,11.178,14.437,19.939,13.022,17.35-2.8034,22.33,5.248,17.794,28.771-1.619,8.396-0.8421,12.198,3.3488,16.389,4.9832,4.9832,5.7692,5.0294,9.0578,0.53203,1.9806-2.7086,7.2883-4.9248,11.795-4.9248,4.5066,0,12.189-2.9538,17.072-6.564,8.4616-6.2559,10.255-6.4076,38.211-3.232,19.604,2.2268,32.708,5.418,39.509,9.6211,5.5968,3.459,13.286,6.2891,17.088,6.2891,9.5177,0,46.238,13.545,60.286,22.238,15.955,9.8724,37.372,17.505,49.118,17.505,6.7028,0,9.8335,1.46,9.8335,4.5857,0,5.3992,3.5421,5.935,8.2318,1.2454,2.4157-2.4157,5.1237-2.386,9.7829,0.10761,4.4297,2.3707,8.2389,2.4865,12.192,0.37064,8.7114-4.6622,31.125-11.551,43.378-13.331,11.951-1.7369,26.638-10.69,42.825-26.105,5.7538-5.4795,13.901-12.09,18.104-14.691,4.2036-2.6006,11.77-11.134,16.814-18.962l9.1714-14.234,0.96037,13.408c0.52818,7.3745-0.5036,14.872-2.2929,16.661-5.1164,5.1164-3.8828,8.0566,4.7588,11.342,7.1527,2.7194,7.7642,4.1049,5.7014,12.917-1.2709,5.4291-2.6487,15.584-3.0619,22.566-0.95579,16.152-2.6535,18.706-14.623,22.004l-9.7852,2.6958,9.1714,2.1936c5.0443,1.2065,10.891,2.7234,12.993,3.3709,2.2356,0.68871,3.8214,6.3233,3.8214,13.577,0,16.762-0.73854,16.984-87.129,26.132-10.78,1.1415-20.864,4.1621-24.457,7.3259-14.588,12.844-95.007,37.114-142.08,42.877-29.027,3.554-71.09,3.5569-100.97,0.006zm91.714-158.01c-9.2479-0.5896-21.149-3.0866-26.448-5.5488-5.2983-2.4622-10.87-4.4768-12.381-4.4768-1.5114,0-4.3835-1.6355-6.3825-3.6346-1.999-1.999-10.76-4.059-19.469-4.5777-9.0337-0.53812-18.155-3.0432-21.237-5.8325-4.5747-4.14-7.7982-4.3755-21.036-1.5365-8.5983,1.844-16.866,3.3527-18.372,3.3527-1.5063,0-9.111-7.9104-16.899-17.579-8.1059-10.062-18.25-19.039-23.725-20.993-10.87-3.8806-14.734-10.343-6.185-10.343,3.1288,0,8.7463-2.1416,12.483-4.7591,6.1496-4.3073,6.7946-4.3073,6.7946,0,0,6.0554,8.2115,6.1557,14.194,0.17334,6.6503-6.6503,20.225-5.6231,28.583,2.1628,3.984,3.7117,7.701,5.3764,8.2599,3.6995,0.6345-1.9034,19.758-2.7614,50.898-2.2837,42.756,0.65595,55.96,2.1169,92.438,10.227,33.764,7.5072,44.256,11.088,50.781,17.332,5.0941,4.8745,10.112,7.146,13.182,5.9677,4.5128-1.7317,4.5292-2.5144,0.1825-8.7202-11.341-16.191-2.5266-18.413,32.713-8.2449,12.169,3.5111,27.628,7.7321,34.354,9.38,6.7257,1.6479,14.53,4.2232,17.342,5.723,4.7993,2.5593,30.722-0.18098,46.389-4.904,4.3174-1.3014,5.5307-0.9538,3.5256,1.0101-4.6933,4.597-32.052,12.972-42.58,13.034-5.3004,0.0315-15.251,4.0264-22.844,9.1714-7.3991,5.0137-16.083,9.1158-19.297,9.1158-6.187,0-26.041-5.4546-55.278-15.187l-17.714-5.8965-12.858,8.6325c-30.27,20.323-43.244,27.702-47.775,27.171-2.6543-0.31103-12.392-1.0479-21.64-1.6375zm280.41-52.061c-4.7963-17.91-9.8694-64.964-7.0041-64.964,0.86765,0,3.837,4.3693,6.5986,9.7096,4.7208,9.129,10.562,72.833,6.6779,72.833-0.86061,0-3.6832-7.9104-6.2724-17.579zm-56.477-14.494c-13.604-5.9128-13.723-15.307-0.15988-12.594,12.259,2.4518,24.629,10.366,22.241,14.229-2.501,4.0466-10.346,3.4658-22.081-1.635zm-36.686-24.942c-15.912-7.5249-19.007-11.112-12.866-14.907,3.8418-2.3744,44.643,9.6039,47.287,13.882,1.6592,2.6847-10.894,9.5252-16.278,8.87-1.1516-0.14014-9.3163-3.6704-18.144-7.8451z"/>
   <path id="path3129" fill="#3b432a" d="m-1326.9,360.77c-23.247-3.9454-42.362-12.009-60.378-25.47-7.4685-5.58-9.9357-9.7717-9.9357-16.88,0-6.9728-3.4132-12.999-12.993-22.941-8.3605-8.6767-11.608-13.994-9.1071-14.913,2.1372-0.78599,5.8841-5.2935,8.3266-10.017,3.887-7.5166,3.8838-9.05-0.025-12.294-2.4564-2.0387-6.4419-2.9485-8.8566-2.0219-2.9144,1.1184-5.4969-1.4894-7.6818-7.757-4.2123-12.084-4.3334-11.587,2.8229-11.587,7.39,0,7.6949-2.3576,1.2291-9.5024-7.8619-8.6872-2.3802-12.893,13.691-10.503,7.7677,1.1549,21.69,3.2311,30.937,4.6138,9.2479,1.3827,27.714,5.4273,41.035,8.9881,26.561,7.0995,47.9,6.3506,64.436-2.2614,5.0443-2.6271,11.923-4.4037,15.286-3.9482,9.1485,1.2393,60.649,18.072,90.27,29.504,24.968,9.6366,56.603,17.664,67.937,17.24,2.9425-0.11006,12.572-0.36744,21.4-0.57172,12.366-0.28615,19.909-2.709,32.864-10.557,19.052-11.541,43.296-16.705,50.471-10.751,9.21,7.6436,5.067,11.844-13.785,13.977-10.089,1.1414-18.343,3.1171-18.343,4.3904s6.5347,3.2716,14.522,4.4405c35.774,5.2359,42.907,7.7645,44.959,15.937,1.0782,4.296,1.1511,8.6204,0.16172,9.6096-0.98923,0.98923-2.5923-1.2367-3.5625-4.9465-0.97015-3.7098-3.3231-6.7013-5.2288-6.6478-5.7603,0.16173-14.165,7.906-14.165,13.052,0,7.2388-2.905,8.1405-41.753,12.96-25.825,3.2036-37.546,6.0102-42.109,10.083-12.144,10.839-68.565,29.329-117.48,38.501-30.829,5.7804-101.65,5.9241-134.94,0.27392zm65.729-126.94c-1.0392-1.6814-3.1839-3.0571-4.7661-3.0571s-2.8768,1.3757-2.8768,3.0571,2.1448,3.0571,4.7662,3.0571,3.9159-1.3757,2.8767-3.0571zm-160.5,30.571c0-1.6814,1.3757-3.0572,3.0572-3.0572,1.6814,0,3.0571,1.3757,3.0571,3.0572,0,1.6814-1.3757,3.0571-3.0571,3.0571-1.6815,0-3.0572-1.3757-3.0572-3.0571zm442.77-30.162c-2.8037-1.0659-8.207-5.9049-12.007-10.753-6.3313-8.0776-6.486-9.1252-1.8475-12.517,4.0849-2.9869,7.7305-2.4654,18.883,2.7011,7.6017,3.5215,13.822,7.1946,13.824,8.1626,0.006,4.7581-14.265,14.15-18.852,12.407zm-253.6-38.48c-0.7614-0.76151-6.1612-1.9109-12-2.5543-13.784-1.5189-23.109-6.6558-29.336-16.159-2.7585-4.2101-7.2296-7.2833-9.9357-6.8295-2.7061,0.45387-11.534-2.2879-19.617-6.0928-12.661-5.96-14.413-7.8571-12.649-13.699,1.1259-3.7294,3.1483-7.9677,4.4943-9.4186,3.6082-3.8895,9.0942,0.57691,9.0942,7.404,0,3.2636,2.0635,5.9339,4.5857,5.9339,2.5221,0,4.5857-2.0374,4.5857-4.5275s3.0954-5.1142,6.8786-5.8314c3.7832-0.71716,14.241-2.8149,23.239-4.6617,13.76-2.8242,20.804-2.373,44.329,2.8393,15.383,3.4084,35.535,7.6863,44.783,9.5064,26.494,5.2144,40.73,9.9987,42.072,14.139,0.7896,2.4375-1.8393,3.8214-7.2596,3.8214-4.6737,0-13.386,3.3017-19.362,7.337-16.742,11.306-23.312,12.315-30.885,4.7422-7.9289-7.9289-14.538-4.0435-9.4128,5.5335,1.778,3.3223,2.364,6.9093,1.3022,7.9711-2.1902,2.1902-32.783,2.6687-34.906,0.54598zm16.212-14.564c-2.1936-2.1937-3.6176-2.3742-3.6176-0.45857,0,4.0806,3.6154,7.696,5.6557,5.6557,0.8688-0.86871-0.048-3.2074-2.0381-5.1971zm141.6,3.7195c-1.0392-1.6814-9.0307-3.0782-17.759-3.104-8.7283-0.0245-17.926-1.3472-20.44-2.9364-3.9213-2.479-3.7098-3.5192,1.488-7.3199,5.7691-4.2185,5.805-4.7108,0.7494-10.297-13.185-14.569-4.3235-16.333,26.791-5.3342,11.77,4.1608,25.102,7.5711,29.627,7.5784,4.5247,0.006,9.077,1.389,10.116,3.0705,1.0392,1.6814-0.8306,3.0571-4.1552,3.0571-10.683,0-15.716,3.5316-15.716,11.027,0,7.3837-7.0375,10.185-10.7,4.2586zm-280.88-13.878c-1.0478-2.7307-1.9052-8.2755-1.9052-12.322,0-5.8069-1.4491-7.2034-6.8786-6.6285-4.3998,0.46582-6.8785-0.92423-6.8785-3.8575,0-2.5221,3.0953-5.0253,6.8785-5.5626,3.7832-0.53731,6.8786-2.9448,6.8786-5.35,0-3.9702,1.3707-4.6605,8.4071-4.2342,1.2611,0.0764,1.8982,2.6172,1.4157,5.6463-0.4824,3.029,1.0661,7.12,3.4411,9.0911,3.608,2.9944,3.6794,5.4418,0.4339,14.882-4.33,12.595-8.9143,15.835-11.793,8.3347zm414.27-17.688c-5.1483-14.738-7.6951-56.436-3.1706-51.911,3.7396,3.7396,9.6835,43.623,8.2544,55.386-0.94652,7.7913-1.2114,7.6103-5.0838-3.4749zm-486.43,2.597c-2.4113-2.9055-2.6432-4.6596-0.616-4.6596,3.6947,0,8.0023,5.8,5.8822,7.9201-0.7695,0.76948-3.1392-0.69777-5.2662-3.2605z"/>
   <path id="path3127" fill="#313824" d="m-1276.3,359.97c-6.6128-0.67789-15.351-3.8498-19.417-7.0486-4.0666-3.1988-12.413-6.6328-18.548-7.631-24.637-4.0089-27.401-5.0159-28.837-10.509-0.8198-3.1347-6.8793-8.4487-13.466-11.809-11.116-5.6707-23.097-21.885-16.172-21.885,4.2357,0,3.7208-20.315-0.6941-27.385-3.0089-4.8181-2.7283-6.9598,1.5286-11.664,7.9593-8.795,6.3413-12.923-5.0653-12.923-9.2905,0-19.091-5.5879-38.169-21.763-8.4076-7.1282,3.2498-7.9984,28.113-2.0986,13.706,3.2524,29.736,6.9757,35.621,8.2739s36.151,11.169,67.257,21.935l56.557,19.575,112.19,0.0315c74.992,0.0214,113.27,1.1073,115.44,3.276,2.2947,2.2898-1.9313,5.3431-14.362,10.376-22.465,9.0963-24.823,11.301-17.677,16.526,5.1179,3.7423,3.5398,4.4173-14.958,6.3982-14.095,1.5095-22.547,4.0815-26.543,8.0779-11.458,11.458-64.533,28.78-115.88,37.819-24.348,4.2863-59.273,5.2614-86.923,2.4268zm13.628-178.04c-5.5578-5.5578-6.3154-8.746-4.6134-19.413,1.1201-7.0196,4.3189-14.549,7.1085-16.731,4.5823-3.5851,5.2768-1.9618,7.1947,16.814,2.4216,23.707-0.1608,28.859-9.6898,19.33zm27.536-5.4258c0.091-10.743,0.3795-11.091,4.5857-5.53,5.8143,7.6872,5.7611,16.994-0.097,16.994-3.2782,0-4.558-3.2687-4.4885-11.464zm49.111-4.3893c-1.559-4.0673-1.5696-8.2879-0.024-9.9283,3.3638-3.5723,5.6802-1.3581,7.2823,6.9611,1.7587,9.1318-3.9929,11.483-7.2572,2.9672zm87.79,1.5367c2.2069-0.88311,4.8437-0.77452,5.8596,0.24121,1.0158,1.0159-0.7898,1.7384-4.0125,1.6057-3.5615-0.14674-4.2858-0.8711-1.8471-1.847zm155.72-31.158c-1.2611-5.6748-2.251-14.617-2.1999-19.871,0.0779-7.999,0.60238-8.6788,3.2236-4.1776,1.7218,2.9568,2.7118,11.899,2.1999,19.871-0.91323,14.223-0.97379,14.302-3.2236,4.1776z"/>
   <path id="path3125" fill="#252b1a" d="m-1259.7,345.68c-16.638-3.6561-45.857-18.425-45.857-23.179,0-1.354,6.9424-4.1272,15.428-6.1627,9.577-2.2975,14.795-5.0216,13.759-7.1835-0.9176-1.9154-2.4518-5.6387-3.4094-8.2741-1.7796-4.8974-50.865-22.372-72.399-25.774-6.3054-0.99617-11.464-3.1246-11.464-4.7298,0-4.3088,26.366-3.3471,47.386,1.7282,21.124,5.1007,41.272,5.8695,41.272,1.575,0-3.9532-11.638-9.995-16.22-8.4201-2.0086,0.69046-12.59-1.2839-23.514-4.3875s-22.618-5.6734-25.986-5.7108c-3.3682-0.0374-9.5633-2.7582-13.767-6.0463-4.6418-3.6309-12.466-6.005-19.926-6.0463-14.691-0.0813-41.833-16.11-30.138-17.798,3.5715-0.51547,14.878,1.8872,25.125,5.3392,10.247,3.4521,21.71,6.2765,25.473,6.2765,3.7631,0,34.416,10.207,68.118,22.683,69.591,25.761,86.535,28.681,133.12,22.94,37.779-4.6555,124.34-6.7431,130.76-3.1533,3.6804,2.0597,0.4063,3.366-12.468,4.9746-13.644,1.7047-18.971,3.978-24.377,10.402-3.8045,4.5215-9.3262,9.1452-12.27,10.275-2.9442,1.1298-6.1089,4.4928-7.0328,7.4735-3.4782,11.221-6.3412,13.875-21.169,19.621-42.193,16.352-118.45,22.805-160.44,13.577z"/>
  </g>
 </g>
</svg>
